<svg width="128" height="129" viewBox="0 0 128 129" fill="none" xmlns="http://www.w3.org/2000/svg">
<mask id="mask0" mask-type="alpha" maskUnits="userSpaceOnUse" x="0" y="0" width="128" height="129">
<rect y="0.0328979" width="128" height="128" fill="white"/>
</mask>
<g mask="url(#mask0)">
<path d="M74.5041 45.6375L74.4895 44.6376L74.4624 44.638L74.4354 44.6399L74.5041 45.6375ZM75.8269 45.6532L75.7875 46.6525L75.7887 46.6525L75.8269 45.6532ZM43.4116 74.8239L43.2803 75.8152L44.5152 75.9787L44.4079 74.7377L43.4116 74.8239ZM41.5641 74.8578L41.3979 73.8717L41.3978 73.8717L41.5641 74.8578ZM36.4925 81.9781L37.4785 81.8118L37.4784 81.8112L36.4925 81.9781ZM43.6272 87.0431L43.7931 88.0292L43.7935 88.0291L43.6272 87.0431ZM45.362 86.48L46.3466 86.3054L46.1131 84.9887L44.9161 85.5849L45.362 86.48ZM97.7255 76.4064L98.7116 76.2396L98.7101 76.2312L97.7255 76.4064ZM96.7313 70.8184L95.7462 70.9903L96.7313 70.8184ZM95.4428 63.2959L94.4572 63.4649L94.4572 63.4649L95.4428 63.2959ZM74.5187 46.6374C74.9511 46.6311 75.3735 46.6361 75.7875 46.6525L75.8663 44.654C75.415 44.6362 74.9565 44.6308 74.4895 44.6376L74.5187 46.6374ZM44.4079 74.7377C43.9028 68.8961 44.4732 62.4009 48.543 57.1297C52.5988 51.8768 60.305 47.618 74.5728 46.6351L74.4354 44.6399C59.8475 45.6448 51.4935 50.0358 46.96 55.9074C42.4406 61.7607 41.8926 68.8647 42.4153 74.91L44.4079 74.7377ZM41.7303 75.8439C42.2581 75.755 42.7789 75.7488 43.2803 75.8152L43.5428 73.8325C42.846 73.7402 42.1247 73.7493 41.3979 73.8717L41.7303 75.8439ZM37.4784 81.8112C37.0016 78.9937 38.9034 76.3206 41.7304 75.8439L41.3978 73.8717C37.4845 74.5317 34.8446 78.2346 35.5065 82.145L37.4784 81.8112ZM43.4614 86.0569C40.6318 86.5328 37.9543 84.6314 37.4785 81.8118L35.5064 82.1445C36.1667 86.058 39.8797 88.6874 43.7931 88.0292L43.4614 86.0569ZM44.9161 85.5849C44.4693 85.8074 43.9816 85.9692 43.4609 86.057L43.7935 88.0291C44.5106 87.9082 45.1865 87.6845 45.8078 87.3751L44.9161 85.5849ZM96.7395 76.5732C98.2247 85.352 96.1507 92.3454 92.1872 97.4153C88.2096 102.503 82.274 105.723 75.9373 106.822C69.5996 107.921 62.9221 106.887 57.4822 103.548C52.0627 100.222 47.8126 94.5736 46.3466 86.3054L44.3773 86.6546C45.94 95.4679 50.514 101.618 56.436 105.253C62.3374 108.875 69.5186 109.964 76.279 108.792C83.0403 107.62 89.4419 104.174 93.7628 98.6471C98.0978 93.102 100.283 85.5309 98.7115 76.2396L96.7395 76.5732ZM95.7462 70.9903C95.9121 71.9414 96.0845 72.8937 96.741 76.5817L98.7101 76.2312C98.0524 72.5367 97.8816 71.5933 97.7164 70.6466L95.7462 70.9903ZM94.4572 63.4649C95.3706 68.7896 95.5547 69.8926 95.7462 70.9903L97.7164 70.6466C97.5255 69.552 97.3433 68.46 96.4284 63.1268L94.4572 63.4649ZM75.7887 46.6525C85.1365 47.01 92.8683 54.1986 94.4572 63.4649L96.4285 63.1269C94.6906 52.9918 86.2201 45.0499 75.8651 44.654L75.7887 46.6525Z" fill="#024FEB"/>
<path fill-rule="evenodd" clip-rule="evenodd" d="M81.8059 93.9756C75.2826 95.616 68.9066 92.6695 67.5627 87.3978C66.2202 82.1249 70.4187 76.5227 76.942 74.8835C83.4654 73.2431 89.8427 76.1871 91.1852 81.46C92.5278 86.733 88.3292 92.3365 81.8059 93.9756Z" fill="#024FEB" stroke="#024FEB" stroke-width="2"/>
<path fill-rule="evenodd" clip-rule="evenodd" d="M81.502 87.6677C79.0066 88.2952 76.5675 87.1681 76.0534 85.1514C75.5398 83.1343 77.1459 80.9912 79.6414 80.3641C82.1368 79.7366 84.5765 80.8628 85.09 82.8799C85.6036 84.8971 83.9975 87.0406 81.502 87.6677Z" fill="white"/>
<path fill-rule="evenodd" clip-rule="evenodd" d="M82.2324 95.4968C78.6252 96.5067 75.0995 94.6928 74.3564 91.4472C73.614 88.201 75.9357 84.7519 79.5428 83.7428C83.15 82.7329 86.6764 84.5454 87.4188 87.7916C88.1612 91.0379 85.8395 94.4877 82.2324 95.4968Z" stroke="white" stroke-width="2"/>
<path d="M101.824 40.3566L95.3589 34.9896L103.364 32.4353" stroke="#024FEB" stroke-width="2" stroke-linecap="round" stroke-linejoin="round"/>
<path d="M108.468 41.648L116.473 39.0937L110.008 33.7267" stroke="#024FEB" stroke-width="2" stroke-linecap="round" stroke-linejoin="round"/>
<path d="M108.1 30.175L103.732 43.9086" stroke="#024FEB" stroke-width="2" stroke-linecap="round" stroke-linejoin="round"/>
<path d="M20.4884 65.9264L12.2318 64.3667L17.9947 58.2518" stroke="#024FEB" stroke-width="2" stroke-linecap="round" stroke-linejoin="round"/>
<path d="M26.9253 63.835L32.6882 57.7201L24.4316 56.1604" stroke="#024FEB" stroke-width="2" stroke-linecap="round" stroke-linejoin="round"/>
<path d="M21.0414 53.9788L23.8788 68.1083" stroke="#024FEB" stroke-width="2" stroke-linecap="round" stroke-linejoin="round"/>
<path d="M49.33 29.7906L43.6747 23.5761L51.9572 22.1607" stroke="#024FEB" stroke-width="2" stroke-linecap="round" stroke-linejoin="round"/>
<path d="M55.7295 31.9942L64.012 30.5788L58.3567 24.3643" stroke="#024FEB" stroke-width="2" stroke-linecap="round" stroke-linejoin="round"/>
<path d="M56.9619 20.5816L50.7247 33.5736" stroke="#024FEB" stroke-width="2" stroke-linecap="round" stroke-linejoin="round"/>
<path d="M45.0682 34.2608L45.3552 34.6702L44.8779 33.7984L45.0682 34.2608ZM23.4582 49.4066L23.0235 49.1596L23.7452 49.8161L23.4582 49.4066ZM100.82 28.9993L100.758 29.4954L101.04 28.5505L100.82 28.9993ZM79.1257 26.2909L79.0936 25.7919L79.0638 26.7871L79.1257 26.2909ZM35.0176 62.5955L34.8876 62.1127L34.9385 63.0892L35.0176 62.5955ZM100.501 44.9524L100.834 45.3254L100.371 44.4697L100.501 44.9524ZM44.8779 33.7984C39.4862 36.0181 34.7859 38.5255 31.0564 41.1375C27.3338 43.7447 24.5475 46.4776 23.0235 49.1596L23.893 49.6536C25.3136 47.1534 27.9666 44.5223 31.6301 41.9566C35.2867 39.3957 39.919 36.9213 45.2586 34.7231L44.8779 33.7984ZM23.7452 49.8161L45.3552 34.6702L44.7813 33.8513L23.1713 48.9972L23.7452 49.8161ZM101.04 28.5505C96.1518 26.1494 88.3249 25.1984 79.0936 25.7919L79.1578 26.7899C88.3277 26.2002 95.9449 27.1619 100.6 29.4481L101.04 28.5505ZM79.0638 26.7871L100.758 29.4954L100.882 28.5031L79.1876 25.7948L79.0638 26.7871ZM67.8128 59.5644C55.2328 62.701 43.4746 63.4447 35.0968 62.1018L34.9385 63.0892C43.4879 64.4596 55.3877 63.6929 68.0547 60.5347L67.8128 59.5644ZM100.168 44.5795C93.6991 50.3574 81.9244 56.046 67.8128 59.5644L68.0547 60.5347C82.2527 56.9947 94.1993 51.2515 100.834 45.3254L100.168 44.5795ZM35.1477 63.0783L100.631 45.4352L100.371 44.4697L34.8876 62.1127L35.1477 63.0783Z" fill="#A6C3FF"/>
<path d="M94.9044 32.3163L94.819 32.8089L95.0735 31.8457L94.9044 32.3163ZM66.8574 27.4516L66.8749 26.9519L66.772 27.9443L66.8574 27.4516ZM42.3138 29.4079L42.718 29.1136L42.5259 28.8497L42.207 28.9194L42.3138 29.4079ZM51.6543 57.7432L51.5735 58.2366L51.5735 58.2366L51.6543 57.7432ZM63.8775 59.0319L63.8521 59.5313L64.898 59.5844L64.2817 58.7377L63.8775 59.0319ZM71.6624 59.1701L71.5483 58.6833L71.6702 59.6701L71.6624 59.1701ZM104.991 51.357L105.286 51.7608L104.877 50.8702L104.991 51.357ZM95.0735 31.8457C87.5556 29.1443 77.6986 27.3299 66.8749 26.9519L66.84 27.9513C77.5821 28.3265 87.3335 30.1271 94.7353 32.7868L95.0735 31.8457ZM66.772 27.9443L94.819 32.8089L94.9898 31.8236L66.9428 26.959L66.772 27.9443ZM23.8364 41.7989C23.9221 39.3445 25.6755 36.9932 28.9302 34.9175C32.1718 32.8502 36.8066 31.1227 42.4205 29.8964L42.207 28.9194C36.5288 30.1598 31.7694 31.9207 28.3925 34.0743C25.0289 36.2195 22.9398 38.8216 22.837 41.764L23.8364 41.7989ZM51.7352 57.2498C43.4123 55.8859 36.3328 53.6388 31.3792 50.8926C26.3835 48.1231 23.7263 44.9517 23.8364 41.7989L22.837 41.764C22.7055 45.5305 25.8496 48.9705 30.8944 51.7672C35.9813 54.5873 43.1814 56.8614 51.5735 58.2366L51.7352 57.2498ZM63.9028 58.5326C59.6471 58.3165 55.562 57.8769 51.7352 57.2498L51.5735 58.2366C55.4383 58.87 59.5606 59.3134 63.8521 59.5313L63.9028 58.5326ZM41.9095 29.7021L63.4732 59.3262L64.2817 58.7377L42.718 29.1136L41.9095 29.7021ZM71.6702 59.6701C79.042 59.5544 85.8542 58.7344 91.6131 57.3687C97.3643 56.0048 102.098 54.0891 105.286 51.7608L104.696 50.9532C101.658 53.1717 97.0683 55.0473 91.3824 56.3957C85.7042 57.7422 78.9651 58.5555 71.6546 58.6702L71.6702 59.6701ZM104.877 50.8702L71.5483 58.6833L71.7765 59.6569L105.105 51.8438L104.877 50.8702Z" fill="#A6C3FF"/>
</g>
</svg>
