<svg width="128" height="129" viewBox="0 0 128 129" fill="none" xmlns="http://www.w3.org/2000/svg">
<mask id="mask0" mask-type="alpha" maskUnits="userSpaceOnUse" x="0" y="0" width="128" height="129">
<rect y="0.0328979" width="128" height="128" fill="white"/>
</mask>
<g mask="url(#mask0)">
<path d="M84.1036 53.2451L84.089 52.2452L84.0619 52.2456L84.0348 52.2475L84.1036 53.2451ZM85.4264 53.2622L85.3839 54.2613L85.3881 54.2615L85.4264 53.2622ZM53.011 82.4314L52.8798 83.4228L54.1145 83.5862L54.0073 82.3453L53.011 82.4314ZM51.1634 82.4655L50.9973 81.4793L50.9971 81.4794L51.1634 82.4655ZM46.0918 89.5871L47.0778 89.4206L47.0778 89.4203L46.0918 89.5871ZM53.2279 94.6507L53.394 95.6368L53.3942 95.6368L53.2279 94.6507ZM54.9615 94.088L55.9461 93.9134L55.7127 92.5969L54.5158 93.1929L54.9615 94.088ZM107.325 84.0141L108.311 83.8473L108.31 83.8388L107.325 84.0141ZM106.331 78.4268L107.316 78.2549L106.331 78.4268ZM105.042 70.9035L104.057 71.0725L104.057 71.0726L105.042 70.9035ZM84.1181 54.245C84.5506 54.2387 84.972 54.2438 85.3839 54.2613L85.4688 52.2631C85.0155 52.2438 84.5559 52.2384 84.089 52.2452L84.1181 54.245ZM54.0073 82.3453C53.5023 76.5038 54.0728 70.0086 58.1427 64.7374C62.1986 59.4845 69.9047 55.2256 84.1723 54.2428L84.0348 52.2475C69.4472 53.2524 61.0932 57.6434 56.5597 63.5151C52.0403 69.3684 51.4921 76.4724 52.0147 82.5176L54.0073 82.3453ZM51.3295 83.4516C51.8576 83.3626 52.3785 83.3565 52.8798 83.4228L53.1422 81.4401C52.4454 81.3479 51.7241 81.3569 50.9973 81.4793L51.3295 83.4516ZM47.0778 89.4203C46.6009 86.6014 48.504 83.9282 51.3298 83.4515L50.9971 81.4794C47.0852 82.1393 44.444 85.8422 45.1058 89.7539L47.0778 89.4203ZM53.0617 93.6646C50.2311 94.1416 47.5536 92.2391 47.0778 89.4206L45.1057 89.7535C45.7661 93.6655 49.479 96.2965 53.394 95.6368L53.0617 93.6646ZM54.5158 93.1929C54.0692 93.4152 53.5817 93.5769 53.0615 93.6646L53.3942 95.6368C54.1107 95.5159 54.7863 95.2924 55.4072 94.9832L54.5158 93.1929ZM106.339 84.1809C107.824 92.9599 105.75 99.9536 101.787 105.024C97.8091 110.112 91.8735 113.331 85.5369 114.43C79.1993 115.529 72.5218 114.496 67.0818 111.157C61.6624 107.831 57.4123 102.182 55.9461 93.9134L53.9768 94.2626C55.5396 103.076 60.1137 109.227 66.0356 112.861C71.9371 116.484 79.1183 117.573 85.8786 116.401C92.6399 115.228 99.0415 111.783 103.362 106.255C107.697 100.71 109.883 93.1388 108.311 83.8473L106.339 84.1809ZM105.346 78.5986C105.512 79.5499 105.684 80.5022 106.34 84.1894L108.31 83.8388C107.652 80.1452 107.481 79.2017 107.316 78.2549L105.346 78.5986ZM104.057 71.0726C104.97 76.3975 105.154 77.5007 105.346 78.5986L107.316 78.2549C107.125 77.1601 106.943 76.0679 106.028 70.7344L104.057 71.0726ZM85.3881 54.2615C94.736 54.6189 102.468 61.8063 104.057 71.0725L106.028 70.7345C104.29 60.5994 95.8194 52.6589 85.4646 52.2629L85.3881 54.2615Z" fill="#024FEB"/>
<path fill-rule="evenodd" clip-rule="evenodd" d="M103.524 65.8561C100.688 64.2234 64.2857 66.8051 52.8525 78.636C46.7329 68.4641 51.0051 56.645 59.7571 49.5615C62.6763 47.2003 66.0898 45.3654 69.7847 44.2918C75.3166 42.6866 82.187 42.3007 88.3645 44.5438C93.1994 46.2999 97.6097 49.6665 100.616 55.3207C102.134 58.1767 102.847 61.7441 103.524 65.8561Z" fill="white"/>
<path d="M103.524 65.8561C100.688 64.2234 64.2857 66.8051 52.8525 78.636C46.7329 68.4641 51.0051 56.645 59.7571 49.5615C62.6763 47.2003 66.0898 45.3654 69.7847 44.2918C75.3166 42.6866 82.187 42.3007 88.3645 44.5438C93.1994 46.2999 97.6097 49.6665 100.616 55.3207C102.134 58.1767 102.847 61.7441 103.524 65.8561" stroke="#024FEB" stroke-width="2"/>
<path fill-rule="evenodd" clip-rule="evenodd" d="M59.3357 73.935C86.2913 45.1884 136 45.1884 104 66.1884C86.6862 66.1884 59.3357 73.935 59.3357 73.935Z" fill="#024FEB" stroke="#024FEB" stroke-width="2"/>
<path d="M67 45.1885L65.5 39.1885" stroke="#024FEB" stroke-width="2"/>
<path d="M66.0139 37.8213C84.2602 20.8163 99.1889 33.2569 67.6726 38.6507C36.1563 44.0444 47.7676 54.8263 66.0139 37.8213Z" stroke="#024FEB" stroke-width="2" stroke-linecap="round"/>
<path d="M101.824 32.8565L95.3589 27.4895L103.364 24.9352" stroke="#024FEB" stroke-width="2" stroke-linecap="round" stroke-linejoin="round"/>
<path d="M108.468 34.148L116.473 31.5937L110.008 26.2267" stroke="#024FEB" stroke-width="2" stroke-linecap="round" stroke-linejoin="round"/>
<path d="M108.1 22.675L103.732 36.4086" stroke="#024FEB" stroke-width="2" stroke-linecap="round" stroke-linejoin="round"/>
<path d="M20.4884 58.4264L12.2318 56.8667L17.9947 50.7518" stroke="#024FEB" stroke-width="2" stroke-linecap="round" stroke-linejoin="round"/>
<path d="M26.9253 56.3349L32.6882 50.22L24.4316 48.6603" stroke="#024FEB" stroke-width="2" stroke-linecap="round" stroke-linejoin="round"/>
<path d="M21.0414 46.4788L23.8788 60.6083" stroke="#024FEB" stroke-width="2" stroke-linecap="round" stroke-linejoin="round"/>
<path d="M49.33 22.2906L43.6747 16.0761L51.9572 14.6607" stroke="#024FEB" stroke-width="2" stroke-linecap="round" stroke-linejoin="round"/>
<path d="M55.7295 24.4941L64.012 23.0787L58.3567 16.8641" stroke="#024FEB" stroke-width="2" stroke-linecap="round" stroke-linejoin="round"/>
<path d="M56.9619 13.0816L50.7247 26.0736" stroke="#024FEB" stroke-width="2" stroke-linecap="round" stroke-linejoin="round"/>
<path d="M45.0682 26.7607L45.3552 27.1701L44.8779 26.2983L45.0682 26.7607ZM23.4582 41.9065L23.0235 41.6595L23.7452 42.316L23.4582 41.9065ZM100.82 21.4992L100.758 21.9953L101.04 21.0504L100.82 21.4992ZM79.1257 18.7908L79.0936 18.2918L79.0638 19.2869L79.1257 18.7908ZM35.0176 55.0954L34.8876 54.6126L34.9385 55.5891L35.0176 55.0954ZM100.501 37.4523L100.834 37.8252L100.371 36.9695L100.501 37.4523ZM44.8779 26.2983C39.4862 28.518 34.7859 31.0254 31.0564 33.6374C27.3338 36.2446 24.5475 38.9774 23.0235 41.6595L23.893 42.1535C25.3136 39.6533 27.9666 37.0222 31.6301 34.4565C35.2867 31.8955 39.919 29.4212 45.2586 27.223L44.8779 26.2983ZM23.7452 42.316L45.3552 27.1701L44.7813 26.3512L23.1713 41.4971L23.7452 42.316ZM101.04 21.0504C96.1518 18.6492 88.3249 17.6982 79.0936 18.2918L79.1578 19.2898C88.3277 18.7001 95.9449 19.6617 100.6 21.9479L101.04 21.0504ZM79.0638 19.2869L100.758 21.9953L100.882 21.003L79.1876 18.2946L79.0638 19.2869ZM67.8128 52.0643C55.2328 55.2009 43.4746 55.9446 35.0968 54.6017L34.9385 55.5891C43.4879 56.9595 55.3877 56.1928 68.0547 53.0346L67.8128 52.0643ZM100.168 37.0794C93.6991 42.8573 81.9244 48.5459 67.8128 52.0643L68.0547 53.0346C82.2527 49.4946 94.1993 43.7514 100.834 37.8252L100.168 37.0794ZM35.1477 55.5782L100.631 37.9351L100.371 36.9695L34.8876 54.6126L35.1477 55.5782Z" fill="#A6C3FF"/>
<path d="M94.9044 24.8161L94.819 25.3088L95.0735 24.3456L94.9044 24.8161ZM66.8574 19.9515L66.8749 19.4518L66.772 20.4442L66.8574 19.9515ZM42.3138 21.9078L42.718 21.6135L42.5259 21.3496L42.207 21.4193L42.3138 21.9078ZM51.6543 50.2431L51.5735 50.7365L51.5735 50.7365L51.6543 50.2431ZM63.8775 51.5318L63.8521 52.0311L64.898 52.0842L64.2817 51.2375L63.8775 51.5318ZM71.6624 51.67L71.5483 51.1832L71.6702 52.1699L71.6624 51.67ZM104.991 43.8569L105.286 44.2607L104.877 43.3701L104.991 43.8569ZM95.0735 24.3456C87.5556 21.6442 77.6986 19.8298 66.8749 19.4518L66.84 20.4512C77.5821 20.8263 87.3335 22.627 94.7353 25.2867L95.0735 24.3456ZM66.772 20.4442L94.819 25.3088L94.9898 24.3235L66.9428 19.4589L66.772 20.4442ZM23.8364 34.2988C23.9221 31.8444 25.6755 29.4931 28.9302 27.4174C32.1718 25.3501 36.8066 23.6226 42.4205 22.3962L42.207 21.4193C36.5288 22.6597 31.7694 24.4206 28.3925 26.5742C25.0289 28.7194 22.9398 31.3215 22.837 34.2639L23.8364 34.2988ZM51.7352 49.7497C43.4123 48.3858 36.3328 46.1387 31.3792 43.3925C26.3835 40.623 23.7263 37.4516 23.8364 34.2988L22.837 34.2639C22.7055 38.0304 25.8496 41.4704 30.8944 44.2671C35.9813 47.0872 43.1814 49.3613 51.5735 50.7365L51.7352 49.7497ZM63.9028 51.0324C59.6471 50.8164 55.562 50.3768 51.7352 49.7497L51.5735 50.7365C55.4383 51.3698 59.5606 51.8133 63.8521 52.0311L63.9028 51.0324ZM41.9095 22.202L63.4732 51.826L64.2817 51.2375L42.718 21.6135L41.9095 22.202ZM71.6702 52.1699C79.042 52.0543 85.8542 51.2343 91.6131 49.8686C97.3643 48.5047 102.098 46.5889 105.286 44.2607L104.696 43.4531C101.658 45.6716 97.0683 47.5472 91.3824 48.8956C85.7042 50.2421 78.9651 51.0553 71.6546 51.1701L71.6702 52.1699ZM104.877 43.3701L71.5483 51.1832L71.7765 52.1568L105.105 44.3437L104.877 43.3701Z" fill="#A6C3FF"/>
</g>
</svg>
